# xmcd
#
# Track frame offsets:
#	150
#	16365
#	27822
#	37831
#	54834
#	73052
#	88546
#	117814
#	140317
#	155029
#	177936
#	189967
#	205440
#	217881
#
# Disc length: 3068
#
# Revision: 1
# Processed by: cddbd v1.5.1PL0 Copyright (c) Steve Scherf et al.
# Submitted via: CDex 1.40Release
# Normalized: r0:TDELIM( - )
#
DISCID=b40bfa0e
DTITLE=Various Artist - Forever Gold: Great Blues Masters
DYEAR=2001
DGENRE=Blues
TTITLE0=B. B. King - It's My Own Fault
TTITLE1=John Lee Hooker - Boom Boom
TTITLE2=Buddy Guy - First Time I Met the Blues
TTITLE3=Gatemouth Moore - Goin' Down Slow
TTITLE4=Charles Brown - Driftin' Blues
TTITLE5=Canned Heat - On the Road Again
TTITLE6=Joe Turner - Stormy Monday
TTITLE7=B. B. King - Thrill is Gone, The
TTITLE8=Ray Charles - Blues is My Middle Name
TTITLE9=Buddy Guy and Junior Wells - Stormy Monday Blues
TTITLE10=Lightnin' Hopkins - Have You Ever Loved a Woman
TTITLE11=B. B. King - How Blue Can You Get
TTITLE12=John Lee Hooker - Crawlin' Black Spider
TTITLE13=Ray Charles - Sittin' On Top of the World
EXTD=YEAR: 2001 ID3G: 0
EXTT0=
EXTT1=
EXTT2=
EXTT3=
EXTT4=
EXTT5=
EXTT6=
EXTT7=
EXTT8=
EXTT9=
EXTT10=
EXTT11=
EXTT12=
EXTT13=
PLAYORDER=
